<?xml version="1.0" encoding="UTF-8"?>
<svg xmlns="http://www.w3.org/2000/svg" xmlns:xlink="http://www.w3.org/1999/xlink" width="24pt" height="24pt" viewBox="0 0 24 24" version="1.1">
<g id="surface757812">
<path style="fill-rule:nonzero;fill:rgb(0%,0%,0%);fill-opacity:1;stroke-width:10;stroke-linecap:butt;stroke-linejoin:round;stroke:rgb(100%,100%,100%);stroke-opacity:1;stroke-miterlimit:10;" d="M 129.014221 14.339258 C 129.991816 14.339258 130.939788 14.428131 131.88776 14.635499 C 137.486718 15.761216 141.900712 20.17521 143.026429 25.774168 C 143.233797 26.72214 143.32267 27.670112 143.32267 28.677332 L 143.32267 157.660743 L 86.000001 136.153633 L 28.677332 157.660743 L 28.677332 28.677332 C 28.677332 21.745288 33.594935 15.968585 40.112241 14.635499 C 41.060213 14.428131 42.008185 14.339258 42.985781 14.339258 Z M 129.014221 14.339258 " transform="matrix(0.13186,0,0,0.13186,0.66,0.66)"/>
<path style=" stroke:none;fill-rule:nonzero;fill:rgb(0%,0%,0%);fill-opacity:1;" d="M 6.328125 2.550781 C 6.199219 2.550781 6.074219 2.5625 5.949219 2.589844 C 5.089844 2.765625 4.441406 3.527344 4.441406 4.441406 L 4.441406 21.449219 L 12 18.613281 L 19.558594 21.449219 L 19.558594 4.441406 C 19.558594 4.308594 19.546875 4.183594 19.519531 4.058594 C 19.371094 3.320312 18.789062 2.738281 18.050781 2.589844 C 17.925781 2.5625 17.800781 2.550781 17.671875 2.550781 Z M 6.328125 2.550781 "/>
</g>
</svg>
